<svg width="140" height="40" viewBox="0 0 140 40" fill="none" xmlns="http://www.w3.org/2000/svg">
<path d="M49.158 18.1495C49.122 18.4375 49.104 18.8995 49.104 19.5355C49.104 20.2795 49.122 20.8255 49.158 21.1735C49.206 21.7855 49.41 22.2895 49.77 22.6855C50.13 23.0695 50.682 23.2615 51.426 23.2615C52.11 23.2615 52.656 23.1055 53.064 22.7935C53.484 22.4695 53.694 21.9655 53.694 21.2815H52.182C52.05 21.2815 51.936 21.2335 51.84 21.1375C51.744 21.0415 51.696 20.9275 51.696 20.7955V18.8875C51.696 18.7555 51.744 18.6415 51.84 18.5455C51.936 18.4495 52.05 18.4015 52.182 18.4015H56.538C56.67 18.4015 56.784 18.4495 56.88 18.5455C56.976 18.6415 57.024 18.7555 57.024 18.8875V21.1915C57.024 22.1875 56.778 23.0635 56.286 23.8195C55.794 24.5635 55.122 25.1395 54.27 25.5475C53.43 25.9435 52.482 26.1415 51.426 26.1415C50.31 26.1415 49.338 25.9255 48.51 25.4935C47.682 25.0495 47.04 24.4615 46.584 23.7295C46.128 22.9855 45.876 22.1635 45.828 21.2635C45.804 20.6875 45.792 20.2135 45.792 19.8415C45.792 19.3975 45.804 18.8035 45.828 18.0595C45.864 17.1595 46.11 16.3435 46.566 15.6115C47.022 14.8675 47.664 14.2795 48.492 13.8475C49.332 13.4035 50.31 13.1815 51.426 13.1815C52.494 13.1815 53.436 13.3795 54.252 13.7755C55.08 14.1715 55.722 14.6695 56.178 15.2695C56.646 15.8695 56.898 16.4515 56.934 17.0155C56.946 17.1235 56.91 17.2195 56.826 17.3035C56.742 17.3755 56.646 17.4115 56.538 17.4115H54.144C53.988 17.4115 53.862 17.3755 53.766 17.3035C53.682 17.2195 53.568 17.0935 53.424 16.9255C53.208 16.6615 52.95 16.4515 52.65 16.2955C52.362 16.1395 51.954 16.0615 51.426 16.0615C50.07 16.0615 49.314 16.7575 49.158 18.1495ZM68.2369 21.9835C68.2009 22.7515 67.9789 23.4535 67.5709 24.0895C67.1629 24.7135 66.5929 25.2115 65.8609 25.5835C65.1289 25.9555 64.2889 26.1415 63.3409 26.1415C62.3929 26.1415 61.5529 25.9555 60.8209 25.5835C60.0889 25.2115 59.5189 24.7135 59.1109 24.0895C58.7029 23.4535 58.4809 22.7515 58.4449 21.9835L58.4269 21.2815L58.4449 20.5975C58.4689 19.8295 58.6849 19.1275 59.0929 18.4915C59.5009 17.8555 60.0709 17.3515 60.8029 16.9795C61.5469 16.6075 62.3929 16.4215 63.3409 16.4215C64.2889 16.4215 65.1289 16.6075 65.8609 16.9795C66.6049 17.3515 67.1809 17.8555 67.5889 18.4915C67.9969 19.1275 68.2129 19.8295 68.2369 20.5975C68.2489 20.7175 68.2549 20.9455 68.2549 21.2815C68.2549 21.6295 68.2489 21.8635 68.2369 21.9835ZM63.3409 23.3515C63.8209 23.3515 64.2049 23.2255 64.4929 22.9735C64.7929 22.7095 64.9609 22.3495 64.9969 21.8935C65.0209 21.6535 65.0329 21.4495 65.0329 21.2815C65.0329 21.1135 65.0209 20.9095 64.9969 20.6695C64.9609 20.2135 64.7929 19.8595 64.4929 19.6075C64.2049 19.3435 63.8209 19.2115 63.3409 19.2115C62.8609 19.2115 62.4709 19.3435 62.1709 19.6075C61.8829 19.8595 61.7209 20.2135 61.6849 20.6695C61.6729 20.7895 61.6669 20.9935 61.6669 21.2815C61.6669 21.5695 61.6729 21.7735 61.6849 21.8935C61.7209 22.3495 61.8829 22.7095 62.1709 22.9735C62.4709 23.2255 62.8609 23.3515 63.3409 23.3515Z" fill="black"/>
<path d="M73.0467 21.1735C73.0947 21.7975 73.2927 22.3015 73.6407 22.6855C74.0007 23.0695 74.5587 23.2615 75.3147 23.2615C76.0347 23.2615 76.5567 23.1235 76.8807 22.8475C77.2047 22.5715 77.4327 22.2355 77.5647 21.8395C77.6367 21.6355 77.7087 21.4975 77.7807 21.4255C77.8527 21.3535 77.9847 21.3175 78.1767 21.3175H80.5347C80.6427 21.3175 80.7327 21.3595 80.8047 21.4435C80.8887 21.5155 80.9307 21.6055 80.9307 21.7135C80.9187 22.5175 80.6607 23.2615 80.1567 23.9455C79.6647 24.6175 78.9927 25.1515 78.1407 25.5475C77.2887 25.9435 76.3467 26.1415 75.3147 26.1415C74.1987 26.1415 73.2267 25.9255 72.3987 25.4935C71.5707 25.0495 70.9287 24.4615 70.4727 23.7295C70.0167 22.9855 69.7647 22.1635 69.7167 21.2635C69.6927 20.6875 69.6807 20.2135 69.6807 19.8415C69.6807 19.3975 69.6927 18.8035 69.7167 18.0595C69.7527 17.1595 69.9987 16.3435 70.4547 15.6115C70.9107 14.8675 71.5527 14.2795 72.3807 13.8475C73.2207 13.4035 74.1987 13.1815 75.3147 13.1815C76.3467 13.1815 77.2887 13.3795 78.1407 13.7755C78.9927 14.1715 79.6647 14.7115 80.1567 15.3955C80.6607 16.0675 80.9187 16.8055 80.9307 17.6095C80.9307 17.7175 80.8887 17.8135 80.8047 17.8975C80.7327 17.9695 80.6427 18.0055 80.5347 18.0055H78.1767C77.9847 18.0055 77.8527 17.9695 77.7807 17.8975C77.7087 17.8255 77.6367 17.6875 77.5647 17.4835C77.4327 17.0875 77.2047 16.7515 76.8807 16.4755C76.5567 16.1995 76.0347 16.0615 75.3147 16.0615C74.5587 16.0615 74.0007 16.2535 73.6407 16.6375C73.2927 17.0215 73.0947 17.5255 73.0467 18.1495C73.0227 18.5575 73.0107 19.0615 73.0107 19.6615C73.0107 20.2375 73.0227 20.7415 73.0467 21.1735ZM91.9673 21.9835C91.9313 22.7515 91.7093 23.4535 91.3013 24.0895C90.8933 24.7135 90.3233 25.2115 89.5913 25.5835C88.8593 25.9555 88.0193 26.1415 87.0713 26.1415C86.1233 26.1415 85.2833 25.9555 84.5513 25.5835C83.8193 25.2115 83.2493 24.7135 82.8413 24.0895C82.4333 23.4535 82.2113 22.7515 82.1753 21.9835L82.1573 21.2815L82.1753 20.5975C82.1993 19.8295 82.4153 19.1275 82.8233 18.4915C83.2313 17.8555 83.8013 17.3515 84.5333 16.9795C85.2773 16.6075 86.1233 16.4215 87.0713 16.4215C88.0193 16.4215 88.8593 16.6075 89.5913 16.9795C90.3353 17.3515 90.9113 17.8555 91.3193 18.4915C91.7273 19.1275 91.9433 19.8295 91.9673 20.5975C91.9793 20.7175 91.9853 20.9455 91.9853 21.2815C91.9853 21.6295 91.9793 21.8635 91.9673 21.9835ZM87.0713 23.3515C87.5513 23.3515 87.9353 23.2255 88.2233 22.9735C88.5233 22.7095 88.6913 22.3495 88.7273 21.8935C88.7513 21.6535 88.7633 21.4495 88.7633 21.2815C88.7633 21.1135 88.7513 20.9095 88.7273 20.6695C88.6913 20.2135 88.5233 19.8595 88.2233 19.6075C87.9353 19.3435 87.5513 19.2115 87.0713 19.2115C86.5913 19.2115 86.2013 19.3435 85.9013 19.6075C85.6133 19.8595 85.4513 20.2135 85.4153 20.6695C85.4033 20.7895 85.3973 20.9935 85.3973 21.2815C85.3973 21.5695 85.4033 21.7735 85.4153 21.8935C85.4513 22.3495 85.6133 22.7095 85.9013 22.9735C86.2013 23.2255 86.5913 23.3515 87.0713 23.3515ZM100.109 16.6015C100.241 16.6015 100.355 16.6495 100.451 16.7455C100.547 16.8415 100.595 16.9555 100.595 17.0875V18.9055C100.595 19.0375 100.547 19.1515 100.451 19.2475C100.355 19.3435 100.241 19.3915 100.109 19.3915H98.4713C97.9313 19.3915 97.5173 19.5355 97.2293 19.8235C96.9533 20.0995 96.8153 20.5075 96.8153 21.0475V25.4755C96.8153 25.6075 96.7673 25.7215 96.6713 25.8175C96.5753 25.9135 96.4613 25.9615 96.3293 25.9615H94.0613C93.9293 25.9615 93.8153 25.9135 93.7192 25.8175C93.6233 25.7215 93.5753 25.6075 93.5753 25.4755V17.0875C93.5753 16.9555 93.6233 16.8415 93.7192 16.7455C93.8153 16.6495 93.9293 16.6015 94.0613 16.6015H96.1493C96.2813 16.6015 96.3953 16.6495 96.4913 16.7455C96.5873 16.8415 96.6353 16.9555 96.6353 17.0875V17.5015C97.2593 16.9015 98.0573 16.6015 99.0293 16.6015H100.109ZM111.233 21.9835C111.197 22.7515 110.975 23.4535 110.567 24.0895C110.159 24.7135 109.589 25.2115 108.857 25.5835C108.125 25.9555 107.285 26.1415 106.337 26.1415C105.389 26.1415 104.549 25.9555 103.817 25.5835C103.085 25.2115 102.515 24.7135 102.107 24.0895C101.699 23.4535 101.477 22.7515 101.441 21.9835L101.423 21.2815L101.441 20.5975C101.465 19.8295 101.681 19.1275 102.089 18.4915C102.497 17.8555 103.067 17.3515 103.799 16.9795C104.543 16.6075 105.389 16.4215 106.337 16.4215C107.285 16.4215 108.125 16.6075 108.857 16.9795C109.601 17.3515 110.177 17.8555 110.585 18.4915C110.993 19.1275 111.209 19.8295 111.233 20.5975C111.245 20.7175 111.251 20.9455 111.251 21.2815C111.251 21.6295 111.245 21.8635 111.233 21.9835ZM106.337 23.3515C106.817 23.3515 107.201 23.2255 107.489 22.9735C107.789 22.7095 107.957 22.3495 107.993 21.8935C108.017 21.6535 108.029 21.4495 108.029 21.2815C108.029 21.1135 108.017 20.9095 107.993 20.6695C107.957 20.2135 107.789 19.8595 107.489 19.6075C107.201 19.3435 106.817 19.2115 106.337 19.2115C105.857 19.2115 105.467 19.3435 105.167 19.6075C104.879 19.8595 104.717 20.2135 104.681 20.6695C104.669 20.7895 104.663 20.9935 104.663 21.2815C104.663 21.5695 104.669 21.7735 104.681 21.8935C104.717 22.3495 104.879 22.7095 105.167 22.9735C105.467 23.2255 105.857 23.3515 106.337 23.3515ZM122.523 25.4755C122.523 25.6075 122.475 25.7215 122.379 25.8175C122.283 25.9135 122.169 25.9615 122.037 25.9615H119.769C119.637 25.9615 119.523 25.9135 119.427 25.8175C119.331 25.7215 119.283 25.6075 119.283 25.4755V20.9215C119.283 20.3935 119.151 19.9795 118.887 19.6795C118.635 19.3675 118.245 19.2115 117.717 19.2115C117.201 19.2115 116.811 19.3615 116.547 19.6615C116.295 19.9615 116.169 20.3815 116.169 20.9215V25.4755C116.169 25.6075 116.121 25.7215 116.025 25.8175C115.929 25.9135 115.815 25.9615 115.683 25.9615H113.415C113.283 25.9615 113.169 25.9135 113.073 25.8175C112.977 25.7215 112.929 25.6075 112.929 25.4755V17.0875C112.929 16.9555 112.977 16.8415 113.073 16.7455C113.169 16.6495 113.283 16.6015 113.415 16.6015H115.593C115.725 16.6015 115.839 16.6495 115.935 16.7455C116.031 16.8415 116.079 16.9555 116.079 17.0875V17.5015C116.643 16.7815 117.489 16.4215 118.617 16.4215C119.829 16.4215 120.783 16.7635 121.479 17.4475C122.175 18.1315 122.523 19.1575 122.523 20.5255V25.4755ZM129.877 19.8415C129.877 19.1815 129.529 18.8515 128.833 18.8515C128.437 18.8515 128.113 18.9595 127.861 19.1755C127.765 19.2715 127.669 19.3315 127.573 19.3555C127.477 19.3795 127.357 19.3915 127.213 19.3915H124.927C124.807 19.3915 124.705 19.3555 124.621 19.2835C124.549 19.2115 124.519 19.1155 124.531 18.9955C124.567 18.6235 124.771 18.2395 125.143 17.8435C125.527 17.4355 126.043 17.0995 126.691 16.8355C127.339 16.5595 128.053 16.4215 128.833 16.4215C130.261 16.4215 131.329 16.7455 132.037 17.3935C132.757 18.0415 133.117 18.9175 133.117 20.0215V25.4755C133.117 25.6075 133.069 25.7215 132.973 25.8175C132.877 25.9135 132.763 25.9615 132.631 25.9615H130.363C130.231 25.9615 130.117 25.9135 130.021 25.8175C129.925 25.7215 129.877 25.6075 129.877 25.4755V24.9715C129.565 25.3555 129.193 25.6495 128.761 25.8535C128.329 26.0455 127.783 26.1415 127.123 26.1415C126.115 26.1415 125.323 25.8775 124.747 25.3495C124.183 24.8215 123.901 24.1375 123.901 23.2975C123.901 22.4935 124.213 21.8335 124.837 21.3175C125.461 20.8015 126.439 20.4295 127.771 20.2015L129.877 19.8415ZM128.221 22.2355C127.885 22.2955 127.621 22.4035 127.429 22.5595C127.237 22.7035 127.141 22.8835 127.141 23.0995C127.141 23.5075 127.429 23.7115 128.005 23.7115C128.533 23.7115 128.977 23.5435 129.337 23.2075C129.697 22.8715 129.877 22.4635 129.877 21.9835L128.221 22.2355Z" fill="#EC5863"/>
<path d="M14.2208 4.98869C15.6455 4.48917 17.2113 5.16285 17.7174 6.49273C18.1048 7.51091 17.7581 8.61769 16.9363 9.30529L17.3804 10.5163L18.0869 11.3316C18.2482 11.5182 18.4928 11.6074 18.738 11.5772C19.3991 11.4959 20.056 11.4928 20.6993 11.5604C20.9173 11.5836 21.1342 11.5116 21.2907 11.3595L21.8005 10.8661L22.1764 9.77185C21.8566 9.33293 21.7483 8.75165 21.9379 8.19933C22.2597 7.26306 23.3107 6.77916 24.2454 7.16256C25.0506 7.49245 25.4887 8.38808 25.253 9.22153C25.1032 9.75239 24.7242 10.15 24.2576 10.3468L23.8415 11.5594L23.9364 12.2276C23.969 12.4573 24.1054 12.6579 24.3047 12.7782C24.9746 13.1847 25.5899 13.6817 26.1301 14.2562C26.3116 14.4496 26.5824 14.5325 26.8427 14.4801L28.1825 14.2111L29.6961 13.3717C29.7039 12.6274 30.1017 11.9079 30.8019 11.5195C31.8606 10.9326 33.2014 11.327 33.7655 12.4024C34.2748 13.3725 33.9551 14.592 33.0327 15.1892C32.3124 15.6547 31.4335 15.6377 30.7551 15.2402L29.2325 16.084L28.3823 16.9871C28.1541 17.2294 28.0728 17.572 28.1599 17.8928C28.1604 17.8947 28.1607 17.896 28.1612 17.8979C28.3102 18.4507 28.4006 19.0063 28.438 19.557C28.4597 19.8851 28.6454 20.1803 28.9362 20.3371L30.0459 20.9353L32.2454 21.35C32.6331 21.0124 33.1672 20.8491 33.713 20.9515C34.6915 21.1363 35.3215 22.1048 35.0708 23.0797C34.8551 23.9145 34.0325 24.4703 33.1723 24.3609C32.5857 24.2863 32.1121 23.9338 31.8578 23.4598L29.6441 23.0427L28.2787 23.2089C28.027 23.24 27.8072 23.3975 27.7046 23.628C27.296 24.5379 26.7323 25.3748 26.0364 26.0973C25.8634 26.2768 25.7985 26.5338 25.8613 26.7744L26.2006 28.0843L27.0384 29.3942C27.9599 29.2563 28.9188 29.6536 29.4508 30.4856C30.1659 31.6034 29.8415 33.0834 28.7285 33.8046C27.6161 34.5257 26.1023 34.2119 25.3732 33.1081C24.8627 32.3353 24.8571 31.382 25.2709 30.6257L24.3815 29.2354L23.288 28.3384C23.1261 28.2048 22.9054 28.1695 22.7078 28.2397C22.4885 28.3178 22.2649 28.3876 22.0362 28.4485C20.7935 28.7796 19.5406 28.8223 18.3489 28.6198C18.1742 28.5905 17.9955 28.6402 17.8619 28.7557L17.2751 29.2642L16.8386 30.336C17.1339 30.7923 17.2093 31.3783 16.9894 31.919C16.6156 32.8366 15.5392 33.2616 14.6276 32.8274C13.8425 32.4535 13.4548 31.535 13.7366 30.7157C13.916 30.1939 14.3158 29.8178 14.7928 29.6473L15.2763 28.4594L15.1865 27.4161C14.3146 26.8717 13.5388 26.1731 12.9044 25.3474L11.4132 25.4942L10.0175 26.1823C10.0266 27.1158 9.54482 28.0039 8.69918 28.4338C7.50426 29.0407 6.03648 28.5034 5.42117 27.2331C4.80604 25.9634 5.27521 24.4421 6.47012 23.8352C7.36433 23.3809 8.41073 23.5673 9.13879 24.2224L10.455 23.573L11.3685 22.5962C11.4282 22.5323 11.4503 22.4424 11.4276 22.3584L11.4273 22.3571C11.0051 20.7902 11.0482 19.2063 11.4718 17.7506C11.4945 17.6707 11.4774 17.5846 11.4235 17.521L10.6355 16.5826L8.93758 15.6942C8.46992 15.8994 7.9155 15.8988 7.42793 15.6434C6.54711 15.182 6.22972 14.0748 6.75476 13.2157C7.2157 12.4624 8.19747 12.1764 8.99469 12.5626C9.51073 12.8124 9.84362 13.2797 9.94203 13.7966L11.6399 14.6849L12.8484 14.7983C12.9323 14.8064 13.0141 14.7711 13.0674 14.7061C13.6155 14.0312 14.268 13.4354 15.0092 12.9467C15.2126 12.8119 15.339 12.5886 15.3422 12.3453L15.3547 11.2518L14.881 9.96133C13.8541 9.88759 12.9251 9.26768 12.557 8.30058C12.0509 6.97071 12.7959 5.48757 14.2208 4.98869Z" fill="#EC5863"/>
<path d="M25.9898 18.4765C25.0729 15.0737 21.5559 13.0542 18.1342 13.966C14.7125 14.8778 12.6819 18.3756 13.5988 21.7785C14.5156 25.1813 18.0327 27.2008 21.4543 26.289C24.876 25.3772 26.9066 21.8794 25.9898 18.4765Z" fill="#F58A97"/>
<path d="M20.9484 24.4109C17.8476 25.2372 14.6687 23.6565 13.4173 20.8204C13.4527 21.1391 13.5128 21.4592 13.5988 21.7785C14.5156 25.1814 18.0326 27.2008 21.4543 26.289C24.8761 25.3771 26.9066 21.8795 25.9898 18.4765C25.9037 18.1573 25.7949 17.8502 25.6653 17.5566C26.0073 20.635 24.049 23.5847 20.9484 24.4109Z" fill="#F07281"/>
<path d="M11.324 33.496C11.0629 32.5269 10.0614 31.9518 9.08698 32.2115C8.11258 32.4711 7.53433 33.4672 7.79542 34.4362C8.05651 35.4053 9.05807 35.9804 10.0325 35.7207C11.0069 35.4611 11.5851 34.465 11.324 33.496Z" fill="#EB5569"/>
<path d="M34.1106 27.9379C33.9381 27.2979 33.2766 26.918 32.633 27.0895C31.9894 27.261 31.6074 27.9189 31.7799 28.559C31.9523 29.1991 32.6139 29.5789 33.2575 29.4074C33.9011 29.2359 34.283 28.578 34.1106 27.9379Z" fill="#EB5569"/>
<path d="M30.8429 6.00213C30.5889 5.05936 29.6145 4.49988 28.6665 4.75249C27.7185 5.0051 27.1559 5.97416 27.4099 6.91693C27.6639 7.8597 28.6383 8.41918 29.5863 8.16656C30.5343 7.91395 31.0969 6.9449 30.8429 6.00213Z" fill="#EB5569"/>
<path d="M20.1955 22.0477C19.9587 21.1687 19.0502 20.6471 18.1664 20.8826C17.2826 21.1181 16.7581 22.0216 16.9949 22.9005C17.2318 23.7795 18.1402 24.3011 19.024 24.0656C19.9078 23.8301 20.4323 22.9266 20.1955 22.0477Z" fill="#EB5569"/>
<path d="M24.3108 19.5818C24.1496 18.9835 23.5313 18.6285 22.9297 18.7888C22.3281 18.9491 21.9711 19.564 22.1323 20.1623C22.2935 20.7606 22.9119 21.1156 23.5134 20.9553C24.115 20.795 24.472 20.18 24.3108 19.5818Z" fill="#EB5569"/>
<path d="M19.9578 17.0961C19.8224 16.5937 19.3032 16.2956 18.7981 16.4302C18.2929 16.5648 17.9931 17.0812 18.1285 17.5835C18.2639 18.0859 18.7831 18.384 19.2882 18.2494C19.7934 18.1148 20.0932 17.5984 19.9578 17.0961Z" fill="#EB5569"/>
</svg>
